<?xml version="1.0" encoding="utf-8"?>
<!-- Generator: Adobe Illustrator 23.0.1, SVG Export Plug-In . SVG Version: 6.00 Build 0)  -->
<svg version="1.1" id="Layer_1" xmlns="http://www.w3.org/2000/svg" xmlns:xlink="http://www.w3.org/1999/xlink" x="0px" y="0px"
	 viewBox="0 0 512 512" style="enable-background:new 0 0 512 512;" xml:space="preserve">
<title>ionicons-v5-a</title>
<g>
	<path d="M261,383l-127-127l127-127c9.4-9.4,9.4-24.6,0-33.9c-9.4-9.4-24.6-9.4-33.9,0L83,239c-4.5,4.5-7,10.7-7,17
		c0,6.3,2.6,12.5,7,17l144,144c9.4,9.4,24.6,9.4,33.9,0C270.3,407.6,270.3,392.4,261,383z"/>
	<path d="M120,280h292c13.3,0,24-10.7,24-24c0-13.3-10.7-24-24-24H120c-13.3,0-24,10.7-24,24C96,269.3,106.7,280,120,280"/>
</g>
</svg>
