<?xml version="1.0" encoding="UTF-8" standalone="no"?>
<!-- Generator: Adobe Illustrator 19.0.0, SVG Export Plug-In . SVG Version: 6.00 Build 0)  -->

<svg
   xmlns:dc="http://purl.org/dc/elements/1.1/"
   xmlns:cc="http://creativecommons.org/ns#"
   xmlns:rdf="http://www.w3.org/1999/02/22-rdf-syntax-ns#"
   xmlns:svg="http://www.w3.org/2000/svg"
   xmlns="http://www.w3.org/2000/svg"
   xmlns:sodipodi="http://sodipodi.sourceforge.net/DTD/sodipodi-0.dtd"
   xmlns:inkscape="http://www.inkscape.org/namespaces/inkscape"
   version="1.1"
   id="Capa_1"
   x="0px"
   y="0px"
   viewBox="0 0 512.016 512.016"
   style="enable-background:new 0 0 512.016 512.016;"
   xml:space="preserve"
   sodipodi:docname="clef.svg"
   inkscape:version="0.92.4 (5da689c313, 2019-01-14)"><metadata
   id="metadata43"><rdf:RDF><cc:Work
       rdf:about=""><dc:format>image/svg+xml</dc:format><dc:type
         rdf:resource="http://purl.org/dc/dcmitype/StillImage" /><dc:title></dc:title></cc:Work></rdf:RDF></metadata><defs
   id="defs41" /><sodipodi:namedview
   pagecolor="#ffffff"
   bordercolor="#666666"
   borderopacity="1"
   objecttolerance="10"
   gridtolerance="10"
   guidetolerance="10"
   inkscape:pageopacity="0"
   inkscape:pageshadow="2"
   inkscape:window-width="1920"
   inkscape:window-height="1021"
   id="namedview39"
   showgrid="false"
   inkscape:zoom="0.4609231"
   inkscape:cx="34.712949"
   inkscape:cy="256.008"
   inkscape:window-x="0"
   inkscape:window-y="32"
   inkscape:window-maximized="1"
   inkscape:current-layer="Capa_1" />
<g
   id="g6"
   transform="translate(-148)">
	<g
   id="g4">
		<path
   d="m 285.806,219.109 v -47.821 c 3.593,-2.381 7.168,-4.821 10.667,-7.33 19.584,-14.046 34.406,-28.535 45.312,-44.305 C 355.191,100.274 362.427,79.06 362.726,58.29 362.939,43.459 359.381,30.215 352.452,20.001 343.773,7.218 329.65,-0.488 315.698,0.024 c -17.118,0.563 -33.075,13.03 -40.653,31.761 -6.298,15.565 -6.298,32.418 -6.298,47.292 v 82.953 c -3.729,2.381 -7.467,4.719 -11.153,7.031 -19.968,12.51 -40.627,25.446 -57.412,43.179 -15.454,16.333 -26.044,35.26 -30.618,54.741 -6.17,26.317 -0.691,54.144 15.445,78.345 16.393,24.593 44.86,39.177 76.237,38.613 2.483,-0.034 4.983,-0.162 7.501,-0.375 v 60.186 c 0,28.237 -22.963,51.2 -51.2,51.2 -28.228,0 -51.2,-23.45 -51.2,-52.275 v -7.458 c 0,-4.71 -3.823,-8.533 -8.533,-8.533 -4.71,0 -8.533,3.823 -8.533,8.533 v 7.458 c 0,38.229 30.626,69.342 68.267,69.342 37.641,0 68.267,-30.626 68.258,-68.267 v -63.01 c 10.479,-2.534 21.009,-6.545 31.215,-11.938 21.811,-11.52 37.521,-31.642 43.11,-55.202 5.333,-22.519 0.853,-45.338 -12.621,-64.239 -13.909,-19.526 -37.64,-30.184 -61.704,-30.252 z m 0.008,-140.024 c 0,-13.961 0,-28.399 5.052,-40.892 4.139,-10.232 13.594,-20.719 25.387,-21.103 0.205,-0.009 0.418,-0.009 0.623,-0.009 7.893,0 16.256,4.855 21.461,12.501 6.263,9.225 7.441,20.574 7.33,28.467 -0.247,17.374 -6.443,35.319 -17.911,51.9 -9.771,14.131 -23.262,27.264 -41.225,40.149 -0.239,0.171 -0.478,0.341 -0.717,0.512 z m -58.137,233.088 c 2.739,3.84 8.064,4.736 11.904,1.997 3.84,-2.739 4.727,-8.064 1.997,-11.904 -6.118,-8.576 -8.38,-19.712 -6.221,-30.549 2.21,-11.085 8.832,-20.779 18.167,-26.598 4.753,-2.961 9.899,-5.154 15.232,-6.613 v 127.923 c -2.603,0.273 -5.18,0.418 -7.731,0.452 -25.498,0.307 -48.649,-11.255 -61.816,-31.01 -13.483,-20.224 -18.108,-43.298 -13.022,-64.973 3.883,-16.555 13.005,-32.768 26.394,-46.908 15.292,-16.154 34.133,-27.955 54.076,-40.448 0.691,-0.435 1.391,-0.879 2.091,-1.314 l 0.009,38.673 c -8.474,1.809 -16.708,5.026 -24.26,9.737 -13.312,8.294 -22.741,22.05 -25.873,37.734 -3.082,15.437 0.212,31.402 9.053,43.801 z m 115.857,-2.5 c -4.454,18.773 -17.015,34.825 -34.475,44.049 -7.654,4.045 -15.462,7.194 -23.245,9.395 V 236.286 c 18.731,0.102 37.282,8.235 47.812,22.997 10.582,14.832 14.098,32.726 9.908,50.39 z"
   id="path2"
   inkscape:connector-curvature="0" />
	</g>
</g>
<g
   id="g8">
</g>
<g
   id="g10">
</g>
<g
   id="g12">
</g>
<g
   id="g14">
</g>
<g
   id="g16">
</g>
<g
   id="g18">
</g>
<g
   id="g20">
</g>
<g
   id="g22">
</g>
<g
   id="g24">
</g>
<g
   id="g26">
</g>
<g
   id="g28">
</g>
<g
   id="g30">
</g>
<g
   id="g32">
</g>
<g
   id="g34">
</g>
<g
   id="g36">
</g>
</svg>