<?xml version="1.0" encoding="utf-8"?>
<!-- Generator: Adobe Illustrator 23.0.1, SVG Export Plug-In . SVG Version: 6.00 Build 0)  -->
<svg version="1.1" id="Layer_1" xmlns="http://www.w3.org/2000/svg" xmlns:xlink="http://www.w3.org/1999/xlink" x="0px" y="0px"
	 viewBox="0 0 512 512" style="enable-background:new 0 0 512 512;" xml:space="preserve">
<title>ionicons-v5-m</title>
<g>
	<path d="M112,320h16c0-8.8,1.3-17.6,3.7-26.4c2.1-7.7,5.1-15.5,8.7-23.4c6.4-13.8,14.8-27.8,24-42.3c6.9-10.8,14.3-21.8,21.4-33.1
		c10.8-17,21.2-34.7,29.1-53.7c3.9-9.5,7.2-19.4,9.5-29.6c2.3-10.3,3.6-20.9,3.6-31.9c0-11.5-1.5-23.4-4.6-35.6L208,48v16
		c6.3,0,14,1.2,22.5,3.8c7.5,2.3,15.5,5.6,23.9,10c14.7,7.7,30.2,18.7,45.1,32.8c22.4,21.2,43.5,49.5,59,84.4
		c15.5,35,25.4,76.6,25.4,125c0,17.7-3.6,34.5-10.1,49.8c-9.7,22.9-26,42.5-46.4,56.3c-10.2,6.9-21.5,12.4-33.5,16.1
		c-12,3.7-24.8,5.8-38.1,5.8c-17.7,0-34.5-3.6-49.8-10.1c-22.9-9.7-42.5-26-56.3-46.4c-6.9-10.2-12.4-21.5-16.1-33.5
		c-3.7-12-5.8-24.8-5.8-38.1H112H96c0,22,4.5,43.1,12.6,62.3c12.2,28.7,32.4,53.1,58,70.4C192,469.9,222.9,480,256,480
		c22,0,43.1-4.5,62.3-12.6c28.7-12.2,53.1-32.4,70.4-58C405.9,384,416,353.1,416,320c0-45.9-8.2-86.9-21.8-122.4
		c-10.1-26.7-23.3-50.3-38.1-70.7c-22.2-30.6-48.2-54.1-74-70.1c-12.9-8-25.8-14.1-38.2-18.3c-12.5-4.2-24.5-6.5-36-6.5
		c-5,0-9.6,2.3-12.7,6.2s-4.1,9-2.8,13.8c2.5,9.5,3.6,18.6,3.6,27.5c0,9.8-1.4,19.3-3.8,28.8c-2.1,8.3-5.1,16.6-8.8,24.8
		c-6.4,14.4-14.8,28.9-24,43.4c-6.9,10.9-14.2,21.9-21.3,33c-10.7,16.7-21.1,33.8-29,52c-3.9,9.1-7.2,18.5-9.6,28.2
		c-2.3,9.7-3.7,19.8-3.7,30.2H112z"/>
	<path d="M320,368h-16c0,13-1.8,23.4-4.6,31.7c-2.1,6.2-4.8,11.2-7.9,15.3c-2.3,3.1-4.8,5.6-7.4,7.7c-4,3.2-8.4,5.5-13.1,7.1
		c-4.7,1.5-9.8,2.3-15,2.3c-6.1,0-12.1-1.1-17.6-3.2c-4.1-1.6-7.9-3.9-11.4-6.8c-2.6-2.2-5.1-4.9-7.3-8c-3.4-4.7-6.3-10.7-8.4-18.3
		c-2.1-7.5-3.4-16.7-3.4-27.6c0-11.4,1.8-21.4,4.5-30.8c2.1-7,4.7-13.8,7.6-20.4c2.2-5,4.5-9.9,6.8-15c3.5-7.5,6.9-15.3,9.6-23.6
		c2.7-8.3,4.6-17.3,4.6-27c0-4.6-0.4-9.3-1.3-14.1l-15.7,3v16c3,0,6.6,0.6,10.6,2.1c3.5,1.3,7.4,3.3,11.4,5.8
		c7,4.5,14.3,10.9,21.2,18.6c10.4,11.5,19.8,26,26.4,41.1c3.3,7.5,5.9,15.2,7.7,22.7c1.8,7.5,2.7,14.8,2.7,21.7H320h16
		c0-16.9-3.9-33.9-10.2-50.1c-4.7-12.1-10.8-23.8-17.9-34.6c-5.3-8.1-11.2-15.7-17.4-22.6c-9.4-10.4-19.7-19.2-30.8-25.7
		c-5.5-3.3-11.3-5.9-17.2-7.8c-5.9-1.9-12.1-3-18.5-3c-4.7,0-9.3,2.1-12.3,5.8c-3,3.7-4.3,8.5-3.4,13.2c0.5,2.8,0.8,5.5,0.8,8.2
		c0,3.3-0.4,6.6-1.1,10c-1.2,6-3.6,12.4-6.6,19.5c-2.3,5.3-5,11-7.8,17.1c-4.2,9.2-8.6,19.4-11.9,31c-3.4,11.6-5.7,24.7-5.6,39.2
		c0,15.9,2.2,29.9,6.4,42c3.1,9.1,7.4,17.2,12.5,24.1c3.9,5.2,8.2,9.7,13,13.5c7.1,5.7,15,9.9,23.2,12.5c8.2,2.7,16.6,3.9,24.9,3.9
		c9.9,0,19.9-1.7,29.4-5.5c7.2-2.9,14-6.9,20.3-12.2c4.7-4,8.9-8.6,12.7-13.9c5.6-8,10.1-17.4,13.1-28.1c3-10.7,4.6-22.8,4.6-36.2
		H320z"/>
</g>
</svg>
