<?xml version="1.0" encoding="utf-8"?>
<!-- Generator: Adobe Illustrator 23.0.1, SVG Export Plug-In . SVG Version: 6.00 Build 0)  -->
<svg version="1.1" id="Layer_1" xmlns="http://www.w3.org/2000/svg" xmlns:xlink="http://www.w3.org/1999/xlink" x="0px" y="0px"
	 viewBox="0 0 512 512" style="enable-background:new 0 0 512 512;" xml:space="preserve">
<title>ionicons-v5-m</title>
<g>
	<path d="M394.2,197.6c-12.4-32.9-30.5-63.4-53.4-90C301.2,61.6,249,32,208,32c-8.8,0-16,7.2-16,16c0,1.3,0.2,2.7,0.5,4
		c13.9,53-14.9,97.1-45.3,143.7C122,234.4,96,274.3,96,320c0,88.2,71.8,160,160,160c88.2,0,160-71.8,160-160
		C416,276.7,408.7,235.5,394.2,197.6z M288.3,418.7C278,429.7,265,432,256,432s-22-2.3-32.3-13.3S208,390.2,208,368
		c0-25.1,8.8-44.3,17.3-62.8c5-10.7,10-21.7,13-33.4c1.1-4.3,5.4-6.9,9.7-5.8c1,0.3,2,0.7,2.8,1.3c9.1,7.1,17.3,15.4,24.2,24.7
		c18.2,24,29,52.4,29,76C304,390.2,298.6,407.8,288.3,418.7z"/>
</g>
</svg>
