<?xml version="1.0" encoding="utf-8"?>
<!-- Generator: Adobe Illustrator 23.0.1, SVG Export Plug-In . SVG Version: 6.00 Build 0)  -->
<svg version="1.1" id="Layer_1" xmlns="http://www.w3.org/2000/svg" xmlns:xlink="http://www.w3.org/1999/xlink" x="0px" y="0px"
	 viewBox="0 0 512 512" style="enable-background:new 0 0 512 512;" xml:space="preserve">
<title>ionicons-v5-m</title>
<g>
	<path d="M194.8,496c-10.1,0-18.4-8.2-18.4-18.3c0-1.1,0.1-2.1,0.3-3.2v-0.1L204.8,320H96c-8.8,0-16-7.2-16-16
		c0-3.7,1.3-7.2,3.6-10.1L302.7,23c6.3-8,17.9-9.4,25.9-3.1c5.1,4,7.7,10.4,6.9,16.8c0,0.3-0.1,0.6-0.1,0.9L307.2,192H416
		c8.8,0,16,7.2,16,16c0,3.7-1.3,7.2-3.6,10.1L209.2,489C205.8,493.4,200.4,496,194.8,496z"/>
</g>
</svg>
