<?xml version="1.0" encoding="utf-8"?>
<!-- Generator: Adobe Illustrator 23.0.1, SVG Export Plug-In . SVG Version: 6.00 Build 0)  -->
<svg version="1.1" id="Capa_1" xmlns="http://www.w3.org/2000/svg" xmlns:xlink="http://www.w3.org/1999/xlink" x="0px" y="0px"
	 viewBox="0 0 512 512" style="enable-background:new 0 0 512 512;" xml:space="preserve">
<g>
	<path d="M81.5,352.7c-3.9,3.9-3.9,10.2,0,14.1l63.6,63.6c3.9,3.9,10.2,3.9,14.1,0c3.9-3.9,3.9-10.2,0-14.1l-63.6-63.6
		C91.8,348.8,85.5,348.8,81.5,352.7z"/>
	<path d="M265.2,190.3c-35.4-20.3-81.1-25-109.4,3.4c-6.5,6.5-11.4,14.2-14.7,22.9c-7.6,20.1-24.8,33.4-43.7,33.9
		c-27.4,0.7-51.2,10.4-68.8,28c-49.1,49.1-30.2,132.4,21.2,183.8c53.7,53.7,136.5,68.5,183.8,21.2c17.6-17.6,27.3-41.4,28-68.8
		c0.2-6.2,1.6-12.2,4.4-17.8c2.4-5,0.4-10.9-4.6-13.4c-5-2.4-10.9-0.4-13.4,4.6c-4,8.3-6.2,17.1-6.4,26.1
		c-0.6,22.2-8.2,41.3-22.2,55.2c-41.2,41.2-112.8,21.6-155.5-21.2C15.2,399.4,5.6,329.7,42.7,292.6c13.9-13.9,33-21.6,55.2-22.2
		c27.1-0.7,51.4-19,61.9-46.8c2.3-6.1,5.7-11.4,10.2-15.9c17.8-17.8,49.7-18.5,80.5-2.7L193,262.4c-14,0.4-27.3,6.1-37.3,16.1
		c-21.4,21.4-21.4,56.3,0,77.8c21.5,21.5,56.3,21.5,77.8,0c9.9-9.9,15.6-23.3,16.1-37.3l57.4-57.4c11.9,23.3,14.7,47.8,7,66
		c-2.2,5.1,0.2,11,5.3,13.1c5.1,2.2,11-0.2,13.1-5.3c10.8-25.6,6.8-58.2-10.6-88.5l91.5-91.5l16.4-12.8l12.3,12.3
		c3.9,3.9,10.2,3.9,14.1,0c3.9-3.9,3.9-10.2,0-14.1l-10.6-10.5l31.8-24.7l7,7c3.9,3.9,10.2,3.9,14.1,0c3.9-3.9,3.9-10.2,0-14.1
		l-5.2-5.2l14.9-11.6c4.7-3.7,5.2-10.7,0.9-15L445.5,3c-4.3-4.3-11.3-3.8-15,0.9l-11.6,14.9l-5.2-5.2c-3.9-3.9-10.2-3.9-14.1,0
		c-3.9,3.9-3.9,10.2,0,14.1l7,7l-24.7,31.8L371.2,56c-3.9-3.9-10.2-3.9-14.1,0c-3.9,3.9-3.9,10.2,0,14.1l12.3,12.3l-12.8,16.4
		L265.2,190.3z M392.4,147.9c-4.2,4.2-122.5,122.5-147.4,147.4c-2.7-6.2-6.6-11.9-11.5-16.8c-4.9-4.9-10.6-8.7-16.8-11.5
		c24.3-24.3,145.4-145.4,147.4-147.4L392.4,147.9z M219.4,342.1c-13.7,13.7-35.8,13.7-49.5,0c-13.6-13.6-13.6-35.8,0-49.5
		c13.5-13.5,35.7-13.8,49.5,0C233.2,306.4,232.9,328.6,219.4,342.1z M439.3,25.1l47.6,47.6c-9.2,7.2-65.5,51-79.5,61.9l-29.9-29.9
		C396.7,79.9,419.6,50.5,439.3,25.1z"/>
	<path d="M290.1,351.9c5.5,0,10,4.5,10,10s-4.5,10-10,10s-10-4.5-10-10S284.5,351.9,290.1,351.9z"/>
</g>
</svg>
