<?xml version="1.0" encoding="utf-8"?>
<!-- Generator: Adobe Illustrator 23.0.1, SVG Export Plug-In . SVG Version: 6.00 Build 0)  -->
<svg version="1.1" id="Layer_1" xmlns="http://www.w3.org/2000/svg" xmlns:xlink="http://www.w3.org/1999/xlink" x="0px" y="0px"
	 viewBox="0 0 512 512" style="enable-background:new 0 0 512 512;" xml:space="preserve">
<title>ionicons-v5-i</title>
<g>
	<circle cx="184" cy="232" r="24"/>
	<path d="M256,384c-45.4,0-83.6-29.5-95.7-69.8c-1.2-4.3,1.3-8.7,5.5-9.9c0.7-0.2,1.5-0.3,2.3-0.3h175.7c4.4-0.1,8.1,3.5,8.1,7.9
		c0,0.8-0.1,1.5-0.3,2.3C339.7,354.5,301.5,384,256,384z"/>
	<circle cx="328" cy="232" r="24"/>
	<path d="M256,48v16c26.6,0,51.8,5.4,74.7,15.1c34.4,14.6,63.8,38.9,84.5,69.6C435.9,179.3,448,216.2,448,256
		c0,26.6-5.4,51.8-15.1,74.7c-14.6,34.4-38.9,63.8-69.6,84.5C332.7,435.9,295.8,448,256,448c-26.6,0-51.8-5.4-74.7-15.1
		c-34.4-14.6-63.8-38.9-84.5-69.6C76.1,332.7,64,295.8,64,256c0-26.6,5.4-51.8,15.1-74.7c14.6-34.4,38.9-63.8,69.6-84.5
		C179.3,76.1,216.2,64,256,64V48V32c-30.9,0-60.4,6.3-87.2,17.6c-40.2,17-74.4,45.4-98.5,81.1C46.1,166.5,32,209.7,32,256
		c0,30.9,6.3,60.4,17.6,87.2c17,40.2,45.4,74.4,81.1,98.5C166.5,465.9,209.7,480,256,480c30.9,0,60.4-6.3,87.2-17.6
		c40.2-17,74.4-45.4,98.5-81.1C465.9,345.5,480,302.3,480,256c0-30.9-6.3-60.4-17.6-87.2c-17-40.2-45.4-74.4-81.1-98.5
		C345.5,46.1,302.3,32,256,32V48z"/>
</g>
</svg>
