<?xml version="1.0" encoding="utf-8"?>
<!-- Generator: Adobe Illustrator 23.0.1, SVG Export Plug-In . SVG Version: 6.00 Build 0)  -->
<svg version="1.1" id="Layer_1" xmlns="http://www.w3.org/2000/svg" xmlns:xlink="http://www.w3.org/1999/xlink" x="0px" y="0px"
	 viewBox="0 0 400 400" style="enable-background:new 0 0 400 400;" xml:space="preserve">
<title>ionicons-v5-e</title>
<g>
	<path d="M200,16V0c-27.6,0-53.9,5.6-77.9,15.7c-35.9,15.2-66.4,40.5-88,72.4C12.6,120.1,0,158.6,0,200c0,27.6,5.6,53.9,15.7,77.9
		c15.2,35.9,40.5,66.4,72.4,88c32,21.5,70.5,34.1,111.9,34.1c27.6,0,53.9-5.6,77.9-15.7c35.9-15.2,66.4-40.5,88-72.4
		c21.5-32,34.1-70.5,34.1-111.9c0-27.6-5.6-53.9-15.7-77.9c-15.2-35.9-40.5-66.4-72.4-88C279.9,12.6,241.4,0,200,0V16v16
		c23.2,0,45.3,4.7,65.4,13.2c30.1,12.7,55.8,34.1,73.9,60.9c9.1,13.4,16.2,28.2,21.1,44c4.9,15.8,7.6,32.5,7.6,50
		c0,23.2-4.7,45.3-13.2,65.4c-12.7,30.1-34.1,55.8-60.9,73.9c-13.4,9.1-28.2,16.2-44,21.1c-15.8,4.9-32.5,7.6-50,7.6
		c-23.2,0-45.3-4.7-65.4-13.2c-30.1-12.7-55.8-34.1-73.9-60.9c-9.1-13.4-16.2-28.2-21.1-44s-7.6-32.5-7.6-50
		c0-23.2,4.7-45.3,13.2-65.4c12.7-30.1,34.1-55.8,60.9-73.9c13.4-9.1,28.2-16.2,44-21.1s32.5-7.6,50-7.6V16z"/>
	<path d="M172,188h16v100c0,8.8,7.2,16,16,16s16-7.2,16-16V172c0-4.2-1.7-8.3-4.7-11.3s-7.1-4.7-11.3-4.7h-32c-8.8,0-16,7.2-16,16
		S163.2,188,172,188z"/>
	<path d="M160,308h88c8.8,0,16-7.2,16-16s-7.2-16-16-16h-88c-8.8,0-16,7.2-16,16S151.2,308,160,308"/>
	<circle cx="200" cy="108" r="26"/>
</g>
</svg>
