<?xml version="1.0" encoding="utf-8"?>
<!-- Generator: Adobe Illustrator 23.0.1, SVG Export Plug-In . SVG Version: 6.00 Build 0)  -->
<svg version="1.1" id="Layer_1" xmlns="http://www.w3.org/2000/svg" xmlns:xlink="http://www.w3.org/1999/xlink" x="0px" y="0px"
	 viewBox="0 0 512 512" style="enable-background:new 0 0 512 512;" xml:space="preserve">
<title>ionicons-v5-l</title>
<g>
	<path d="M48,96v16h32v336H48h0V112l0,0V96V80c-4.4,0-8.6,0.9-12.5,2.5C29.8,85,24.9,89,21.5,94.1c-1.7,2.6-3.1,5.4-4,8.4
		c-0.9,3-1.4,6.2-1.4,9.5v336c0,4.4,0.9,8.6,2.5,12.5c2.4,5.8,6.5,10.6,11.6,14.1c2.6,1.7,5.4,3.1,8.4,4c3,0.9,6.2,1.4,9.5,1.4h32
		c4.4,0,8.6-0.9,12.5-2.5c5.8-2.4,10.6-6.5,14.1-11.6c1.7-2.6,3.1-5.4,4-8.4c0.9-3,1.4-6.2,1.4-9.5V112c0-4.4-0.9-8.6-2.5-12.5
		c-2.4-5.8-6.5-10.6-11.6-14.1c-2.6-1.7-5.4-3.1-8.4-4c-3-0.9-6.2-1.4-9.5-1.4H48V96z"/>
	<path d="M112,240h128c8.8,0,16-7.2,16-16c0-8.8-7.2-16-16-16H112c-8.8,0-16,7.2-16,16C96,232.8,103.2,240,112,240"/>
	<path d="M112,416h128c8.8,0,16-7.2,16-16s-7.2-16-16-16H112c-8.8,0-16,7.2-16,16S103.2,416,112,416"/>
	<path d="M128,160v16h96v0v272h-96h0V176l0,0V160v-16c-4.4,0-8.6,0.9-12.5,2.5c-5.8,2.4-10.6,6.5-14.1,11.6c-1.7,2.6-3.1,5.4-4,8.4
		c-0.9,3-1.4,6.2-1.4,9.5v272c0,4.4,0.9,8.6,2.5,12.5c2.4,5.8,6.5,10.6,11.6,14.1c2.6,1.7,5.4,3.1,8.4,4c3,0.9,6.2,1.4,9.5,1.4h96
		c4.4,0,8.6-0.9,12.5-2.5c5.8-2.4,10.6-6.5,14.1-11.6c1.7-2.6,3.1-5.4,4-8.4c0.9-3,1.4-6.2,1.4-9.5V176c0-4.4-0.9-8.6-2.5-12.5
		c-2.4-5.8-6.5-10.6-11.6-14.1c-2.6-1.7-5.4-3.1-8.4-4c-3-0.9-6.2-1.4-9.5-1.4h-96V160z"/>
	<path d="M272,48v16h64v384h-64h0V64l0,0V48V32c-4.4,0-8.6,0.9-12.5,2.5c-5.8,2.4-10.6,6.5-14.1,11.6c-1.7,2.6-3.1,5.4-4,8.4
		c-0.9,3-1.4,6.2-1.4,9.5v384c0,4.4,0.9,8.6,2.5,12.5c2.4,5.8,6.5,10.6,11.6,14.1c2.6,1.7,5.4,3.1,8.4,4c3,0.9,6.2,1.4,9.5,1.4h64
		c4.4,0,8.6-0.9,12.5-2.5c5.8-2.4,10.6-6.5,14.1-11.6c1.7-2.6,3.1-5.4,4-8.4c0.9-3,1.4-6.2,1.4-9.5V64c0-4.4-0.9-8.6-2.5-12.5
		c-2.4-5.8-6.5-10.6-11.6-14.1c-2.6-1.7-5.4-3.1-8.4-4c-3-0.9-6.2-1.4-9.5-1.4h-64V48z"/>
	<path d="M422.5,96.1l-1.7-15.9l-40.4,4.3c-4.7,0.5-9.1,1.9-13.1,4c-5.9,3.2-10.7,7.9-14.1,13.5c-3.3,5.6-5.2,12.2-5.2,19.1
		c0,1.4,0.1,2.7,0.2,4.1l34.9,321.6l0,0c0.5,4.7,1.9,9.1,3.9,13.1c3.1,6,7.6,11,13.2,14.5c5.6,3.5,12.2,5.6,19.3,5.6
		c1.2,0,2.5-0.1,3.7-0.2l0,0l40.4-4.3c4.7-0.5,9.1-1.9,13.1-4c5.9-3.2,10.7-7.9,14.1-13.5c3.3-5.6,5.2-12.2,5.2-19.1
		c0-1.4-0.1-2.7-0.2-4.1l0,0l-34.9-321.5l0-0.1c-0.5-4.7-1.9-9.1-3.9-13.1c-3.1-6-7.6-11-13.2-14.5c-5.6-3.5-12.2-5.6-19.3-5.6
		c-1.2,0-2.5,0.1-3.7,0.2l0,0L422.5,96.1l1.7,15.9c0.1,0,0.3,0,0.4,0c0.5,0,0.9,0.1,1.4,0.3c0.7,0.3,1.5,0.8,2.1,1.6
		c0.6,0.8,1,1.7,1.1,2.9l0-0.1L464,438.3l0,0c0,0.2,0,0.4,0,0.6c0,0.7-0.1,1.3-0.3,1.9c-0.3,0.9-0.9,1.6-1.5,2.1
		c-0.3,0.2-0.6,0.4-0.9,0.5c-0.3,0.1-0.6,0.2-1,0.3l-40.4,4.2l0,0c-0.1,0-0.3,0-0.4,0c-0.5,0-0.9-0.1-1.4-0.3
		c-0.7-0.3-1.5-0.8-2.1-1.6c-0.6-0.8-1-1.7-1.1-2.8l0,0L380,121.7c0-0.2,0-0.4,0-0.6c0-0.7,0.1-1.3,0.3-1.9c0.3-0.9,0.9-1.6,1.5-2.1
		c0.3-0.2,0.6-0.4,0.9-0.5c0.3-0.1,0.6-0.2,1-0.3l40.4-4.2l0,0L422.5,96.1z"/>
</g>
</svg>
