<?xml version="1.0" encoding="utf-8"?>
<!-- Generator: Adobe Illustrator 23.0.1, SVG Export Plug-In . SVG Version: 6.00 Build 0)  -->
<svg version="1.1" id="Layer_1" xmlns="http://www.w3.org/2000/svg" xmlns:xlink="http://www.w3.org/1999/xlink" x="0px" y="0px"
	 viewBox="0 0 512 512" style="enable-background:new 0 0 512 512;" xml:space="preserve">
<title>ionicons-v5-l</title>
<g>
	<path d="M64,480H48c-17.7,0-32-14.3-32-32V112c0-17.7,14.3-32,32-32h16c17.7,0,32,14.3,32,32v336C96,465.7,81.7,480,64,480z"/>
	<path d="M240,176c0-17.7-14.3-32-32-32h-64c-17.7,0-32,14.3-32,32v28c0,2.2,1.8,4,4,4h120c2.2,0,4-1.8,4-4V176z"/>
	<path d="M112,448c0,17.7,14.3,32,32,32h64c17.7,0,32-14.3,32-32v-30c0-1.1-0.9-2-2-2H114c-1.1,0-2,0.9-2,2V448z"/>
	<path d="M114,240h124c1.1,0,2,0.9,2,2v140c0,1.1-0.9,2-2,2H114c-1.1,0-2-0.9-2-2V242C112,240.9,112.9,240,114,240z"/>
	<path d="M320,480h-32c-17.7,0-32-14.3-32-32V64c0-17.7,14.3-32,32-32h32c17.7,0,32,14.3,32,32v384C352,465.7,337.7,480,320,480z"/>
	<path d="M495.9,445.5l-32.2-340c-1.5-15.7-16.9-27-34.5-25.3l-31.8,3c-17.6,1.7-30.7,15.7-29.2,31.4l32.2,340
		c1.5,15.7,16.9,27,34.5,25.3l31.8-3C484.3,475.1,497.4,461.1,495.9,445.5z"/>
</g>
</svg>
