<?xml version="1.0" encoding="utf-8"?>
<!-- Generator: Adobe Illustrator 23.0.1, SVG Export Plug-In . SVG Version: 6.00 Build 0)  -->
<svg version="1.1" id="Capa_1" xmlns="http://www.w3.org/2000/svg" xmlns:xlink="http://www.w3.org/1999/xlink" x="0px" y="0px"
	 viewBox="0 0 512 512" style="enable-background:new 0 0 512 512;" xml:space="preserve">
<g>
	<path d="M245.4,245.3l-40,40c-5.9,5.9-5.9,15.4,0,21.2s15.4,5.9,21.2,0l40-40c5.9-5.9,5.9-15.4,0-21.2
		C260.8,239.5,251.3,239.5,245.4,245.3z"/>
	<path d="M473.9,217.7c50.8-51,50.8-128.6-0.1-179.5c-51.1-51.1-129.3-50.7-179.6,0c-29.4,29.6-41.2,69.4-35.9,107.4l-242,256.5
		c-22.3,23.8-21.7,60.4,1.4,83.4l8.8,8.8c23,23,59.7,23.6,83.5,1.3l256.5-242C407.3,259.4,447.7,244.6,473.9,217.7z M452.6,59.4
		c35.5,35.5,38.8,87.3,9.9,125.8L326.8,49.5C365.3,20.6,417.2,24,452.6,59.4z M89.4,473.8c-11.9,11.1-30.2,10.8-41.7-0.7l-8.8-8.8
		c-11.5-11.5-11.8-29.8-0.7-41.7l229.7-243.4c12.7,28.9,36,52.2,64.9,64.9L89.4,473.8z M315.4,196.6c-34.2-34.2-37.5-87.8-9.8-125.7
		l135.5,135.5C403.3,234,349.7,230.8,315.4,196.6z"/>
</g>
</svg>
