<?xml version="1.0" encoding="utf-8"?>
<!-- Generator: Adobe Illustrator 23.0.1, SVG Export Plug-In . SVG Version: 6.00 Build 0)  -->
<svg version="1.1" id="Layer_1" xmlns="http://www.w3.org/2000/svg" xmlns:xlink="http://www.w3.org/1999/xlink" x="0px" y="0px"
	 viewBox="0 0 256 450" style="enable-background:new 0 0 256 450;" xml:space="preserve">
<title>ionicons-v5-j</title>
<g>
	<path d="M55.8,449c-11.6,0-23-3.7-32.4-10.5C8.7,427.8,0,410.7,0,392.6c-0.1-21.6,13.7-40.8,34.1-47.7L85,327.7
		c6.6-2.3,11-8.5,11-15.5V61c0-14.7,9.9-27.5,24.1-31.1L228.5,1.7c11.8-3,23.8,4,26.8,15.8c0.5,1.8,0.7,3.7,0.7,5.5v57.8
		c0,14.7-9.9,27.6-24.2,31.2l-91.6,23.1c-7.2,1.9-12.2,8.4-12.2,15.8V393c0.1,20.7-13.1,39.2-32.8,45.8L73.8,446
		C68,448,61.9,449,55.8,449z"/>
</g>
</svg>
