<?xml version="1.0" encoding="utf-8"?>
<!-- Generator: Adobe Illustrator 23.0.1, SVG Export Plug-In . SVG Version: 6.00 Build 0)  -->
<svg version="1.1" id="Layer_1" xmlns="http://www.w3.org/2000/svg" xmlns:xlink="http://www.w3.org/1999/xlink" x="0px" y="0px"
	 viewBox="0 0 512 512" style="enable-background:new 0 0 512 512;" xml:space="preserve">
<g id="Page-1">
	<g>
		<path id="Shape" d="M153.6,56C68.9,56,0,114.3,0,186.3c0.3,16.7,6.2,33,17,47.4c5.1,6.8,9.5,14,13.1,21.3c2.4,5.4,0.1,11.4-5.7,15
			C14.3,276.4,8.5,285.9,8.5,296c0,11.1,7,21.5,18.7,27.7c4.2,2.2,6.8,5.9,6.9,9.9v55.7c0,36.8,34.4,66.7,76.8,66.7
			s76.8-29.9,76.8-66.7c-0.1-27.5,15.2-53.6,41.8-71.5c50-32.6,78.5-81,77.6-131.9C307.2,114.3,238.3,56,153.6,56L153.6,56z
			 M218.5,307.7c-30.5,20.4-47.9,50.2-47.8,81.6c0,29.4-26.8,53.3-59.7,53.3s-59.7-23.9-59.7-53.3v-55.7c-0.1-8.3-5.3-16-14-20.7
			c-7.3-3.7-11.7-10.1-11.6-16.9c-0.1-6.1,3.5-11.9,9.7-15.7c11.4-7.1,15.7-19.1,10.8-29.8c-3.9-8.1-8.7-15.9-14.3-23.3
			c-9.4-12.5-14.5-26.7-14.8-41.2c0-64.3,61.3-116.7,136.5-116.7S290.1,121.7,290.1,186C290.9,232.9,264.6,277.7,218.5,307.7z"/>
		<path d="M153.6,89.3c-47.6,0-88.1,26.3-103.9,63.2c-0.1,0.2-0.2,0.4-0.3,0.7c-4.5,10.7-6.8,21.9-6.8,33.1c0,8,0,32.5,19.6,47.8
			c3.3,2.5,8.7,2.5,12-0.1s3.3-6.7,0.1-9.3c-7-6.1-11.5-13.7-12.9-21.8c1.4-0.1,2.7-0.2,4.2-0.2c39.2,0,71,28,71,62.4
			c0,3.2-0.2,6.2-0.5,9.2c-4.2,3.5-8.8,6.9-13.5,10c-24.9,15.9-38.6,40-37.2,65.1c0,3.7,3.8,6.7,8.5,6.7c4.7,0,8.5-3,8.5-6.7
			c-1.5-21.1,10.1-41.6,31.1-54.9c30.1-18.1,47.1-46.4,45.7-76c0-41.7-40.2-75.7-89.6-75.7c-5.7,0-11.3,0.5-16.9,1.4
			c14.8-24.6,46.1-40.6,80.9-41.4c51.8,0,93.9,37.5,93.9,83.6c0.7,36.3-19.5,71-55,94.5c-1.2,0.8-2.5,1.6-3.9,2.6
			c-17,11-52.3,34-60.5,91.9c-0.5,3.7,2.9,6.9,7.5,7.3c0.3,0,0.6,0.1,0.9,0.1c4.3,0,8-2.6,8.5-5.9c7.5-52.6,38.1-72.5,54.5-83.1
			c1.5-1,2.9-1.9,4.1-2.7c39.3-26,61.6-64.3,60.9-104.6C264.5,132.8,214.8,89.3,153.6,89.3L153.6,89.3z M89.6,156
			c40,0,72.5,28,72.5,62.4c0.4,12.6-2.8,25.1-9.4,36.7c-5.7-37.1-42.6-65.7-87.2-65.7c-2,0-3.9,0.1-5.8,0.2c0-1.3,0-2.4,0-3.3
			c0-8.9,1.6-17.8,4.8-26.3C72.5,157.4,81,156,89.6,156z"/>
		<path d="M426.7,255.1c0.7-26.9,12.1-52.4,31.7-70.8c2.4-2.1,3.4-5.4,2.6-8.5c-0.8-3.1-3.2-5.5-6.3-6.2s-6.3,0.3-8.4,2.7
			c-22.8,21.6-36,51.4-36.6,82.8c0.6,31.4,13.8,61.2,36.6,82.8c2.1,2.4,5.3,3.5,8.4,2.7c3.1-0.7,5.5-3.1,6.3-6.2
			c0.8-3.1-0.2-6.4-2.6-8.5C438.7,307.5,427.3,282,426.7,255.1z"/>
		<path d="M483.5,206c-1.7-1.5-3.9-2.3-6.2-2.1c-2.3,0.1-4.4,1.2-5.9,2.8c-25.6,27.1-25.6,69.6,0,96.7c2,2.3,5.1,3.3,8.1,2.7
			c3-0.6,5.4-2.8,6.4-5.7c1-2.9,0.3-6.1-1.7-8.4c-19.9-20.7-19.9-53.3,0-74c1.5-1.7,2.3-3.9,2.1-6.2
			C486.3,209.6,485.2,207.5,483.5,206L483.5,206z"/>
		<path d="M509.8,232.3c-3.2-3.5-8.5-3.8-12-0.6c-7.2,5.7-11.4,14.3-11.4,23.4s4.2,17.8,11.4,23.4c2.3,2.1,5.5,2.8,8.4,1.9
			c2.9-0.9,5.2-3.4,5.8-6.4c0.6-3-0.4-6.2-2.8-8.2c-3.3-2.6-5.4-6.5-5.7-10.7c0.3-4.2,2.4-8.1,5.7-10.7
			C512.7,241.2,513,235.8,509.8,232.3L509.8,232.3z"/>
		<path d="M384,255.1c0-37.5,16.8-73.8,48.6-104.8c2.2-2.1,3.1-5.3,2.3-8.2c-0.8-3-3-5.3-6-6.1s-6.1,0-8.3,2.1
			c-35.2,34.3-53.8,74.7-53.8,117s18.6,82.8,53.8,117c3.4,3.3,8.8,3.2,12.1-0.1c3.3-3.4,3.2-8.8-0.1-12.1
			C400.8,328.9,384,292.6,384,255.1z"/>
		<path d="M341.3,255.1c0-46.9,19.8-92,57.3-130.6c2.1-2.2,2.9-5.3,2.1-8.3c-0.8-2.9-3.2-5.2-6.1-6s-6.1,0.1-8.2,2.3
			c-40.7,41.8-62.1,91.1-62.1,142.5s21.5,100.7,62.1,142.5c3.3,3.4,8.7,3.4,12.1,0.1c3.4-3.3,3.4-8.7,0.1-12.1
			C361.1,347.1,341.3,301.9,341.3,255.1z"/>
	</g>
</g>
</svg>
