<?xml version="1.0" encoding="utf-8"?>
<!-- Generator: Adobe Illustrator 23.0.1, SVG Export Plug-In . SVG Version: 6.00 Build 0)  -->
<svg version="1.1" id="Layer_1" xmlns="http://www.w3.org/2000/svg" xmlns:xlink="http://www.w3.org/1999/xlink" x="0px" y="0px"
	 viewBox="0 0 143 138" style="enable-background:new 0 0 143 138;" xml:space="preserve">
<style type="text/css">
	.st0{clip-path:url(#SVGID_2_);}
	.st1{fill:#1ED760;}
	.st2{fill:#1D531D;}
</style>
<g>
	<defs>
		<rect id="SVGID_1_" y="0" width="143" height="138"/>
	</defs>
	<clipPath id="SVGID_2_">
		<use xlink:href="#SVGID_1_"  style="overflow:visible;"/>
	</clipPath>
	<g class="st0">
		<path class="st1" d="M80.1,93.6c12.4-4.7,18.5-18.5,13.8-30.9c-4.7-12.3-18.6-18.5-31-13.7c-12.4,4.7-18.5,18.5-13.8,30.9
			c2.4,6.4,7.5,11.3,13.8,13.7l-16.1,41.9C11.2,121.9-6.6,82.1,7.1,46.6S60.6-6.5,96.2,7c35.5,13.6,53.3,53.4,39.7,88.9
			c-7,18.2-21.4,32.6-39.7,39.6L80.1,93.6z"/>
		<path class="st2" d="M96.2,138c-1,0-1.9-0.6-2.3-1.6L77.8,94.5c-0.5-1.3,0.1-2.7,1.4-3.2c5.4-2,9.6-6,11.9-11.3
			c2.4-5.2,2.5-11.1,0.4-16.4c-4.3-11.1-16.7-16.6-27.8-12.3C52.7,55.6,47.1,68,51.4,79c2.2,5.7,6.7,10.2,12.4,12.3
			c1.3,0.5,1.9,1.9,1.4,3.2L49,136.4c-0.5,1.3-1.9,1.9-3.2,1.4C28,131,13.9,117.7,6.2,100.3c-7.8-17.4-8.3-36.8-1.4-54.6
			C11.6,28,25,14,42.4,6.2C59.9-1.5,79.3-2,97.1,4.8c17.8,6.8,31.9,20.1,39.7,37.5c7.8,17.4,8.3,36.8,1.4,54.6
			c-7.3,18.8-22.2,33.8-41.1,41C96.8,137.9,96.5,138,96.2,138z M71.5,5c-9.2,0-18.4,1.9-27,5.8C28.2,18,15.8,31,9.4,47.6
			c-6.4,16.6-5.9,34.5,1.3,50.7c6.9,15.4,19.1,27.4,34.7,34l14.4-37.4c-5.9-2.9-10.6-8-12.9-14.2c-5.2-13.6,1.6-28.8,15.2-34
			c13.6-5.2,28.9,1.6,34.1,15.2c2.5,6.5,2.4,13.7-0.5,20.1c-2.5,5.7-6.9,10.2-12.4,12.9l14.4,37.4c16.5-7,29.6-20.4,36-37.2
			c6.4-16.5,5.9-34.5-1.3-50.7C125.2,28.2,112,15.8,95.4,9.5C87.6,6.4,79.5,5,71.5,5z"/>
	</g>
</g>
</svg>
