<?xml version="1.0" encoding="utf-8"?>
<!-- Generator: Adobe Illustrator 23.0.1, SVG Export Plug-In . SVG Version: 6.00 Build 0)  -->
<svg version="1.1" id="Layer_1" xmlns="http://www.w3.org/2000/svg" xmlns:xlink="http://www.w3.org/1999/xlink" x="0px" y="0px"
	 viewBox="0 0 512 512" style="enable-background:new 0 0 512 512;" xml:space="preserve">
<title>ionicons-v5-e</title>
<g>
	<path d="M448,256h16c0-28.7-5.8-56.1-16.4-81c-15.8-37.3-42.2-69.1-75.4-91.5C339.1,61.1,299,48,256,48c-28.7,0-56.1,5.8-81,16.4
		c-37.3,15.8-69.1,42.2-91.5,75.4C61.1,172.9,48,213,48,256c0,28.7,5.8,56.1,16.4,81c15.8,37.3,42.2,69.1,75.4,91.5
		C172.9,450.9,213,464,256,464c28.7,0,56.1-5.8,81-16.4c37.3-15.8,69.1-42.2,91.5-75.4C450.9,339.1,464,299,464,256H448h-16
		c0,24.3-4.9,47.4-13.8,68.5c-13.4,31.6-35.7,58.5-63.8,77.5c-14,9.5-29.5,17-46,22.1c-16.5,5.1-34.1,7.9-52.3,7.9
		c-24.3,0-47.4-4.9-68.5-13.8c-31.6-13.4-58.5-35.7-77.5-63.8c-9.5-14-17-29.5-22.1-46C82.8,291.8,80,274.3,80,256
		c0-24.3,4.9-47.4,13.8-68.5c13.4-31.6,35.7-58.5,63.8-77.5c14-9.5,29.5-17,46-22.1c16.5-5.1,34.1-7.9,52.3-7.9
		c24.3,0,47.4,4.9,68.5,13.8c31.6,13.4,58.5,35.7,77.5,63.8c9.5,14,17,29.5,22.1,46c5.1,16.5,7.9,34.1,7.9,52.3H448z"/>
	<path d="M336,240H176c-8.8,0-16,7.2-16,16c0,8.8,7.2,16,16,16h160c8.8,0,16-7.2,16-16C352,247.2,344.8,240,336,240"/>
</g>
</svg>
