<svg xmlns="http://www.w3.org/2000/svg" viewBox="0 0 166 166"><defs><style>.cls-1{fill:#fff;}</style></defs><title>white logo</title><g id="Layer_2" data-name="Layer 2"><g id="Layer_1-2" data-name="Layer 1"><path class="cls-1" d="M83,0h0a83,83,0,1,0,83,83A83,83,0,0,0,83,0ZM52.24,120.38a6.95,6.95,0,0,1-13.89,0V45.66a6.95,6.95,0,0,1,13.89,0Zm25.8,0a7,7,0,0,1-7,6.94h0a6.94,6.94,0,0,1-6.94-6.94V78.51a6.94,6.94,0,0,1,6.94-6.94h0a7,7,0,0,1,7,6.94Zm25.79,0a6.95,6.95,0,0,1-13.89,0V98.43a6.95,6.95,0,1,1,13.89,0Zm25.8,0a6.95,6.95,0,0,1-13.89,0V64.58a6.95,6.95,0,1,1,13.89,0Z"/></g></g></svg>