<?xml version="1.0" encoding="utf-8"?>
<!-- Generator: Adobe Illustrator 23.0.1, SVG Export Plug-In . SVG Version: 6.00 Build 0)  -->
<svg version="1.1" id="Layer_1" xmlns="http://www.w3.org/2000/svg" xmlns:xlink="http://www.w3.org/1999/xlink" x="0px" y="0px"
	 viewBox="0 0 512 512" style="enable-background:new 0 0 512 512;" xml:space="preserve">
<title>ionicons-v5-g</title>
<g>
	<path d="M272,232v-80c0-8.8-7.2-16-16-16c-8.8,0-16,7.2-16,16v80c0,8.8,7.2,16,16,16C264.8,248,272,240.8,272,232"/>
	<path d="M280,88V72c0-13.3-10.7-24-24-24c-13.3,0-24,10.7-24,24v16c0,13.3,10.7,24,24,24C269.3,112,280,101.3,280,88"/>
	<path d="M149,115l-12-12c-9.4-9.4-24.6-9.4-33.9,0s-9.4,24.6,0,33.9l12,12c9.4,9.4,24.6,9.4,33.9,0
		C158.3,139.6,158.3,124.4,149,115"/>
	<path d="M256,240v16c2.3,0,4.3,0.4,6.2,1.3c2.9,1.2,5.3,3.3,7.1,5.8c0.9,1.3,1.5,2.7,2,4.2c0.5,1.5,0.7,3.1,0.7,4.8
		c0,2.3-0.4,4.3-1.3,6.2c-1.2,2.9-3.3,5.3-5.8,7.1c-1.3,0.9-2.7,1.5-4.2,2c-1.5,0.5-3.1,0.7-4.8,0.7c-2.3,0-4.3-0.4-6.2-1.3
		c-2.9-1.2-5.3-3.3-7.1-5.8c-0.9-1.3-1.5-2.7-2-4.2c-0.5-1.5-0.7-3.1-0.7-4.8c0-2.3,0.4-4.3,1.3-6.2c1.2-2.9,3.3-5.3,5.8-7.1
		c1.3-0.9,2.7-1.5,4.2-2c1.5-0.5,3.1-0.7,4.8-0.7V240v-16c-6.6,0-12.9,1.3-18.7,3.8c-8.6,3.7-15.9,9.7-21.1,17.4
		c-2.6,3.8-4.6,8.1-6,12.6c-1.4,4.5-2.2,9.3-2.2,14.3c0,6.6,1.3,12.9,3.8,18.7c3.7,8.6,9.7,15.9,17.4,21.1c3.8,2.6,8.1,4.6,12.6,6
		c4.5,1.4,9.3,2.2,14.3,2.2c6.6,0,12.9-1.3,18.7-3.8c8.6-3.7,15.9-9.7,21.1-17.4c2.6-3.8,4.6-8.1,6-12.6c1.4-4.5,2.2-9.3,2.2-14.3
		c0-6.6-1.3-12.9-3.8-18.7c-3.7-8.6-9.7-15.9-17.4-21.1c-3.8-2.6-8.1-4.6-12.6-6c-4.5-1.4-9.3-2.2-14.3-2.2V240z"/>
	<path d="M256,96V80c-26.5,0-51.8,5.4-74.7,15.1c-34.5,14.6-63.8,38.9-84.5,69.5C76.1,195.3,64,232.3,64,272
		c0,26.5,5.4,51.8,15.1,74.7c14.6,34.5,38.9,63.8,69.5,84.5C179.3,451.9,216.3,464,256,464c26.5,0,51.8-5.4,74.7-15.1
		c34.5-14.6,63.8-38.9,84.5-69.5C435.9,348.7,448,311.7,448,272c0-26.5-5.4-51.8-15.1-74.7c-14.6-34.5-38.9-63.8-69.5-84.5
		C332.7,92.1,295.7,80,256,80V96v16c22.1,0,43.1,4.5,62.3,12.6c28.7,12.1,53.2,32.4,70.4,58c8.6,12.8,15.5,26.8,20.1,41.9
		c4.7,15,7.2,31,7.2,47.6c0,22.1-4.5,43.1-12.6,62.3c-12.1,28.7-32.4,53.2-58,70.4c-12.8,8.6-26.8,15.5-41.9,20.1
		c-15,4.7-31,7.2-47.6,7.2c-22.1,0-43.1-4.5-62.3-12.6c-28.7-12.1-53.2-32.4-70.4-58c-8.6-12.8-15.5-26.8-20.1-41.9
		c-4.7-15-7.2-31-7.2-47.6c0-22.1,4.5-43.1,12.6-62.3c12.1-28.7,32.4-53.2,58-70.4c12.8-8.6,26.8-15.5,41.9-20.1
		c15-4.7,31-7.2,47.6-7.2V96z"/>
</g>
</svg>
