<?xml version="1.0" encoding="utf-8"?>
<!-- Generator: Adobe Illustrator 23.0.1, SVG Export Plug-In . SVG Version: 6.00 Build 0)  -->
<svg version="1.1" id="Capa_1" xmlns="http://www.w3.org/2000/svg" xmlns:xlink="http://www.w3.org/1999/xlink" x="0px" y="0px"
	 viewBox="0 0 512 512" style="enable-background:new 0 0 512 512;" xml:space="preserve">
<g>
	<path d="M222.2,358c-13,0-23.5,10.5-23.5,23.5s10.5,23.5,23.5,23.5s23.5-10.5,23.5-23.5S235.2,358,222.2,358z M222.2,390
		c-4.7,0-8.5-3.8-8.5-8.5s3.8-8.5,8.5-8.5c4.7,0,8.5,3.8,8.5,8.5S226.9,390,222.2,390z"/>
	<path d="M458.2,73.9c-2.9-3.1-7.8-3.1-10.8-0.2l-27.9,27.9l-5.6-5.6c-3.9-3.9-9.1-6.2-14.5-6.2c-6.8,0-13,3.4-16.7,9l-16,24.4
		c-5.2,7.9-4.1,18.4,2.6,25.1l1.7,1.7l-27.1,27.1L318,18.6C316.2,7.8,307,0,296,0H146.4c-11,0-20.2,7.8-22,18.6L52.1,458.8
		c-1,6.4,0.8,12.9,5,17.8c4.2,5,10.5,7.9,17,7.9h4.6v11c0,9.1,7.4,16.5,16.5,16.5h39.9c9.1,0,16.5-7.4,16.5-16.5v-11h141v11
		c0,9.1,7.4,16.5,16.5,16.5h39.9c9.1,0,16.5-7.4,16.5-16.5v-11h2.6c6.6,0,12.8-2.9,17-7.9c4.2-4.9,6-11.4,5-17.8l-9.2-56.2
		c-0.6-3.6-3.7-6.3-7.4-6.3c-4.6,0-8.1,4.1-7.4,8.7l9.2,56.2c0.5,2.8-0.8,4.7-1.6,5.7c-1.4,1.6-3.4,2.6-5.6,2.6H74.1
		c-2.2,0-4.2-0.9-5.6-2.6c-0.8-0.9-2-2.9-1.6-5.7l23.6-143.6h261.4l7.2,43.7c0.6,3.6,3.7,6.3,7.4,6.3c4.6,0,8.2-4.1,7.4-8.7
		L347,195.4l34.7-34.7l2.8,2.8c3.8,3.8,9,5.8,14.2,5.8c3.8,0,7.6-1.1,10.9-3.2l24.4-16c5.6-3.7,9-9.8,9-16.7
		c0-5.5-2.3-10.7-6.2-14.5l-6.7-6.7l27.7-27.7C460.8,81.7,461.1,76.9,458.2,73.9z M307.7,485h43v10.5c0,0.8-0.7,1.5-1.5,1.5h-39.9
		c-0.8,0-1.5-0.7-1.5-1.5V485z M136.7,485v10.5c0,0.8-0.7,1.5-1.5,1.5H95.2c-0.8,0-1.5-0.7-1.5-1.5V485H136.7z M331,190.2
		l-11.3,11.3l-21.1-128h13.2L331,190.2z M306.7,214.6l-56,56v-197h32.8L306.7,214.6z M139.2,21c0.6-3.5,3.6-6,7.2-6H296
		c3.6,0,6.6,2.5,7.2,6l6.2,37.6H133L139.2,21z M92.9,302.6l37.6-229.1h13.2l-37.6,229.1H92.9z M193.7,302.6h-72.4L159,73.5h34.8
		V302.6z M235.7,285.5l-17.1,17.1h-9.9V73.5h27V285.5z M250.7,302.6v-10.9l59-59l11.5,69.8H250.7z M349.5,302.6h-13.1l-13.6-82.9
		l11.3-11.3L349.5,302.6z M428,133.9c-0.1,0.9-0.5,2.5-2.2,3.7l-24.4,16c-2,1.3-4.6,1-6.3-0.6L380,137.8c-1.7-1.7-1.9-4.3-0.6-6.3
		l16-24.4c1.1-1.7,2.8-2.1,3.7-2.2c0.2,0,0.3,0,0.5,0c0.9,0,2.3,0.3,3.5,1.5l11.2,11.2l0,0l0,0l12.3,12.3
		C428,131.4,428.1,133.1,428,133.9z"/>
</g>
</svg>
