<?xml version="1.0" encoding="utf-8"?>
<!-- Generator: Adobe Illustrator 23.0.1, SVG Export Plug-In . SVG Version: 6.00 Build 0)  -->
<svg version="1.1" id="Layer_1" xmlns="http://www.w3.org/2000/svg" xmlns:xlink="http://www.w3.org/1999/xlink" x="0px" y="0px"
	 viewBox="0 0 512 512" style="enable-background:new 0 0 512 512;" xml:space="preserve">
<title>ionicons-v5-c</title>
<g>
	<path d="M352,160h96l0,96c0,8.8,7.2,16,16,16c8.8,0,16-7.2,16-16l0-112c0-4.2-1.7-8.3-4.7-11.3c-3-3-7.1-4.7-11.3-4.7H352
		c-8.8,0-16,7.2-16,16C336,152.8,343.2,160,352,160L352,160z"/>
	<path d="M59.3,379.3l121.4-121.4l0,0c1.6-1.6,3.4-2.7,5.3-3.5c1.9-0.8,4-1.2,6-1.2c2.1,0,4.1,0.4,6.1,1.2c1.9,0.8,3.7,1.9,5.3,3.5
		l0,0l0,0l50.7,50.7l0,0c4.6,4.6,10.1,8.2,15.8,10.5c5.8,2.4,11.9,3.5,18,3.5c6.1,0,12.3-1.2,18.1-3.5c5.8-2.3,11.3-5.9,15.9-10.6
		l0,0l0,0l137.4-137.4c6.2-6.2,6.2-16.4,0-22.6c-6.2-6.2-16.4-6.2-22.6,0L299.3,286.1l0,0l0,0c-1.6,1.6-3.4,2.7-5.3,3.5
		c-1.9,0.8-4,1.2-6.1,1.2c-2,0-4.1-0.4-6-1.2c-1.9-0.8-3.7-1.9-5.3-3.5l0,0l-50.7-50.7l0,0l0,0c-4.7-4.7-10.1-8.2-15.9-10.5
		c-5.8-2.3-11.9-3.5-18.1-3.5c-6.1,0-12.3,1.2-18.1,3.5c-5.8,2.3-11.2,5.9-15.9,10.5l0,0L36.7,356.7c-6.2,6.2-6.2,16.4,0,22.6
		C42.9,385.6,53.1,385.6,59.3,379.3L59.3,379.3z"/>
</g>
</svg>
