<?xml version="1.0" encoding="utf-8"?>
<!-- Generator: Adobe Illustrator 23.0.1, SVG Export Plug-In . SVG Version: 6.00 Build 0)  -->
<svg version="1.1" id="Layer_1" xmlns="http://www.w3.org/2000/svg" xmlns:xlink="http://www.w3.org/1999/xlink" x="0px" y="0px"
	 viewBox="0 0 472 472" style="enable-background:new 0 0 472 472;" xml:space="preserve">
<g>
	<path d="M467.1,113.5c-3-1.8-6.8-1.9-9.9-0.2l-108.3,59.1V137c0-27.6-22.4-50-50-50H50c-27.6,0-50,22.4-50,50v197.4
		c0,27.6,22.4,50,50,50h248.9c27.6,0,50-22.4,50-50v-34.8l108.3,59.1c3.1,1.7,6.9,1.6,9.9-0.2c3-1.8,4.9-5.1,4.9-8.6V122.1
		C472,118.6,470.1,115.3,467.1,113.5z M328.9,334.4c0,16.6-13.4,30-30,30H50c-16.6,0-30-13.4-30-30V137c0-16.6,13.4-30,30-30h248.9
		c16.6,0,30,13.4,30,30L328.9,334.4z M452,333.1l-103.1-56.3v-81.5L452,139V333.1z"/>
</g>
</svg>
