<?xml version="1.0" encoding="utf-8"?>
<!-- Generator: Adobe Illustrator 23.0.1, SVG Export Plug-In . SVG Version: 6.00 Build 0)  -->
<svg version="1.1" id="Layer_1" xmlns="http://www.w3.org/2000/svg" xmlns:xlink="http://www.w3.org/1999/xlink" x="0px" y="0px"
	 viewBox="0 0 512 512" style="enable-background:new 0 0 512 512;" xml:space="preserve">
<title>ionicons-v5-m</title>
<g>
	<path d="M96,208H48c-8.8,0-16-7.2-16-16s7.2-16,16-16h48c8.8,0,16,7.2,16,16S104.8,208,96,208z"/>
	<path d="M124.2,140.2c-4.2,0-8.3-1.7-11.3-4.7l-33.9-33.9c-6.2-6.2-6.2-16.4,0-22.6c6.2-6.2,16.4-6.2,22.6,0l33.9,33.9
		c6.2,6.3,6.2,16.4,0,22.6C132.5,138.5,128.4,140.2,124.2,140.2z"/>
	<path d="M192,112c-8.8,0-16-7.2-16-16V48c0-8.8,7.2-16,16-16s16,7.2,16,16v48C208,104.8,200.8,112,192,112z"/>
	<path d="M260,140.2c-8.8,0-16-7.2-16-16c0-4.2,1.7-8.3,4.7-11.3l33.9-33.9c6.2-6.2,16.4-6.2,22.6,0c6.2,6.2,6.2,16.4,0,22.6
		l-34,33.9C268.3,138.5,264.2,140.2,260,140.2z"/>
	<path d="M90.3,309.9c-8.8,0-16-7.2-16-16c0-4.2,1.7-8.3,4.7-11.3l33.9-33.9c6.3-6.2,16.5-6,22.6,0.3c6,6.2,6,16.1,0,22.3
		l-33.9,33.9C98.6,308.2,94.5,309.9,90.3,309.9z"/>
	<path d="M219,151.8c-10.2-10.2-26.6-10.2-36.8,0l0,0l-30.4,30.4c-10.2,10.2-10.2,26.6,0,36.8h0l57,57c1.6,1.6,4.1,1.6,5.7,0l0,0
		l61.6-61.6c1.6-1.6,1.6-4.1,0-5.7l0,0L219,151.8z"/>
	<path d="M472.3,405.1L304.2,237c-1.6-1.6-4.1-1.6-5.7,0l0,0L237,298.6c-1.6,1.6-1.6,4.1,0,5.7l0,0l168.1,168.1
		c10.2,10.1,26.6,10.1,36.8,0l30.4-30.4C482.5,431.7,482.5,415.3,472.3,405.1L472.3,405.1z"/>
</g>
</svg>
