<?xml version="1.0" encoding="utf-8"?>
<!-- Generator: Adobe Illustrator 23.0.1, SVG Export Plug-In . SVG Version: 6.00 Build 0)  -->
<svg version="1.1" id="Layer_1" xmlns="http://www.w3.org/2000/svg" xmlns:xlink="http://www.w3.org/1999/xlink" x="0px" y="0px"
	 viewBox="0 0 512 512" style="enable-background:new 0 0 512 512;" xml:space="preserve">
<title>ionicons-v5-m</title>
<g>
	<path d="M163.1,193.5l11.3,11.3l30.4-30.4l-4.3-4.3l2.3,5.6c0.7-0.3,1.4-0.8,2-1.3l-4.3-4.3l2.3,5.6l-2.2-5.5l0,6
		c0.8,0,1.5-0.1,2.2-0.4l-2.2-5.5l0,6v-6l-2.2,5.5c0.7,0.3,1.5,0.4,2.2,0.4v-6l-2.2,5.5l2.3-5.6l-4.3,4.3c0.6,0.6,1.3,1,2,1.3
		l2.3-5.6l-4.3,4.3l253.3,253.3l4.3-4.3l-5.6,2.3c0.3,0.7,0.8,1.4,1.3,2l4.3-4.3l-5.6,2.3l5.5-2.3h-6c0,0.8,0.1,1.5,0.4,2.3l5.5-2.3
		h-6h6l-5.5-2.3c-0.3,0.7-0.4,1.5-0.4,2.3h6l-5.5-2.3l5.6,2.3l-4.3-4.3c-0.6,0.6-1,1.3-1.3,2l5.6,2.3l-4.3-4.3l-30.4,30.4l4.3,4.3
		l-2.3-5.6c-0.7,0.3-1.4,0.8-2,1.3l4.3,4.3l-2.3-5.6l2.2,5.5v-6c-0.8,0-1.5,0.1-2.2,0.4l2.2,5.5v-6v6l2.2-5.5
		c-0.7-0.3-1.5-0.4-2.2-0.4v6l2.2-5.5l-2.3,5.6l4.3-4.3c-0.6-0.6-1.3-1-2-1.3l-2.3,5.6l4.3-4.3L174.4,196.3l-4.3,4.3l5.6-2.3
		c-0.3-0.7-0.8-1.4-1.3-2l-4.3,4.3l5.6-2.3l-5.5,2.2h6c0-0.8-0.1-1.5-0.4-2.2l-5.5,2.2h6h-6l5.5,2.2c0.3-0.7,0.4-1.5,0.4-2.2h-6
		l5.5,2.2l-5.6-2.3l4.3,4.3c0.6-0.6,1-1.3,1.3-2l-5.6-2.3l4.3,4.3L163.1,193.5l-11.3-11.3c-2.5,2.5-4.4,5.5-5.7,8.6
		c-1.3,3.1-1.9,6.5-1.9,9.8c0,3.3,0.6,6.6,1.9,9.8c1.3,3.1,3.2,6.1,5.7,8.6L405,472.2l0,0c2.5,2.5,5.5,4.4,8.6,5.7
		c3.1,1.3,6.5,1.9,9.8,1.9c3.3,0,6.6-0.6,9.8-1.9c3.1-1.3,6.1-3.2,8.6-5.7l30.4-30.4c2.5-2.5,4.4-5.5,5.7-8.6
		c1.3-3.1,1.9-6.5,1.9-9.8c0-3.3-0.6-6.6-1.9-9.8c-1.3-3.1-3.2-6.1-5.7-8.6L219,151.8c-2.5-2.5-5.5-4.4-8.6-5.7
		c-3.1-1.3-6.5-1.9-9.8-1.9c-3.3,0-6.6,0.6-9.8,1.9c-3.1,1.3-6.1,3.2-8.6,5.7l-30.4,30.4L163.1,193.5z"/>
	<rect x="180.4" y="164.5" transform="matrix(0.7071 -0.7071 0.7071 0.7071 -87.8158 211.9992)" width="63.3" height="95.1"/>
	<path d="M48,208h48c8.8,0,16-7.2,16-16c0-8.8-7.2-16-16-16H48c-8.8,0-16,7.2-16,16C32,200.8,39.2,208,48,208"/>
	<path d="M78.9,101.5l33.9,33.9c6.2,6.2,16.4,6.2,22.6,0c6.2-6.2,6.2-16.4,0-22.6l-33.9-33.9c-6.2-6.2-16.4-6.2-22.6,0
		S72.6,95.2,78.9,101.5"/>
	<path d="M176,48v48c0,8.8,7.2,16,16,16c8.8,0,16-7.2,16-16V48c0-8.8-7.2-16-16-16C183.2,32,176,39.2,176,48"/>
	<path d="M282.5,78.9l-33.9,33.9c-6.2,6.2-6.2,16.4,0,22.6c6.2,6.2,16.4,6.2,22.6,0l33.9-33.9c6.2-6.2,6.2-16.4,0-22.6
		C298.9,72.6,288.8,72.6,282.5,78.9"/>
	<path d="M112.8,248.6l-33.9,33.9c-6.2,6.2-6.2,16.4,0,22.6c6.2,6.2,16.4,6.2,22.6,0l33.9-33.9c6.2-6.2,6.2-16.4,0-22.6
		C129.2,242.3,119.1,242.3,112.8,248.6"/>
</g>
</svg>
