<?xml version="1.0" encoding="utf-8"?>
<!-- Generator: Adobe Illustrator 23.0.1, SVG Export Plug-In . SVG Version: 6.00 Build 0)  -->
<svg version="1.1" id="Layer_1" xmlns="http://www.w3.org/2000/svg" xmlns:xlink="http://www.w3.org/1999/xlink" x="0px" y="0px"
	 viewBox="0 0 1440 74.1" style="enable-background:new 0 0 1440 74.1;" xml:space="preserve">
<style type="text/css">
	.st0{fill:#333333;}
</style>
<path class="st0" d="M0,42.3h6.2c6.1,0,18.8,0,30.8-2.7c12.2-2.6,25-8,37-5.3c12.2,2.7,24,13.2,37,15.9c12.1,2.7,24-2.7,37-2.7
	c12-0.1,24,5.4,37-1.3c11.9-6.7,24-25.1,37-30.5c11.8-5.3,24,2.7,36,8c12.8,5.4,25,7.9,37,4c12.7-4.1,25-14.5,37-13.3
	c12.6,1.2,25,14.7,37,18.6c12.5,4.1,25-1.4,37-5.3c12.5-4.1,25-6.5,37-6.6c12.4,0.1,25,2.6,37,4c12.3,1.3,25,1.3,37,8
	c12.2,6.5,25,20,37,25.2c12.2,5.2,24,2.7,37,1.3c12.1-1.3,24-1.3,37-10.6c12-9.4,24-27.8,37-27.8c11.9,0.1,24,18.5,37,17.2
	c11.8-1.2,24-22.6,36-29.2c12.8-6.6,25,1.3,37,4c12.7,2.6,25,0.1,37,9.3c12.6,9.2,25,30.6,37,33.1c12.5,2.7,25-13.3,37-19.9
	c12.5-6.5,25-4.1,37,0c12.4,3.9,25,9.4,37,13.3c12.3,4.1,25,6.5,37-1.3c12.2-8,25-26.4,37-33.1c12.2-6.7,24-1.2,37,8
	c12.1,9.2,24,22.6,37,29.2c12,6.6,24,6.6,37,8c11.9,1.4,24,3.9,37-1.3c11.8-5.2,24-18.6,36-22.5c12.8-4.1,25,1.4,37,8
	c12.7,6.6,25,14.6,37,17.3c12.6,2.6,25,0.1,37-10.6c12.5-10.7,25-29.1,37-29.2c12.5,0.1,25,18.5,37,27.8c12.4,9.3,25,9.3,31,9.3h6
	v15.9h-6.2c-6.1,0-18.8,0-30.8,0c-12.2,0-25,0-37,0c-12.2,0-24,0-37,0c-12.1,0-24,0-37,0c-12,0-24,0-37,0c-11.9,0-24,0-37,0
	c-11.8,0-24,0-36,0c-12.8,0-25,0-37,0c-12.7,0-25,0-37,0c-12.6,0-25,0-37,0c-12.5,0-25,0-37,0c-12.5,0-25,0-37,0c-12.4,0-25,0-37,0
	c-12.3,0-25,0-37,0c-12.2,0-25,0-37,0c-12.2,0-24,0-37,0c-12.1,0-24,0-37,0c-12,0-24,0-37,0c-11.9,0-24,0-37,0c-11.8,0-24,0-36,0
	c-12.8,0-25,0-37,0c-12.7,0-25,0-37,0c-12.6,0-25,0-37,0c-12.5,0-25,0-37,0c-12.5,0-25,0-37,0c-12.4,0-25,0-37,0c-12.3,0-25,0-37,0
	c-12.2,0-25,0-37,0c-12.2,0-24,0-37,0c-12.1,0-24,0-37,0c-12,0-24,0-37,0c-11.9,0-24,0-37,0c-11.8,0-24,0-36,0c-12.8,0-25,0-37,0
	c-12.7,0-25,0-37,0c-12.6,0-25,0-37,0c-12.5,0-25,0-37,0c-12.5,0-25,0-37,0c-12.4,0-25,0-31,0H0V42.3z"/>
</svg>
