<?xml version="1.0" encoding="utf-8"?>
<!-- Generator: Adobe Illustrator 23.0.1, SVG Export Plug-In . SVG Version: 6.00 Build 0)  -->
<svg version="1.1" id="Layer_1" xmlns="http://www.w3.org/2000/svg" xmlns:xlink="http://www.w3.org/1999/xlink" x="0px" y="0px"
	 viewBox="0 0 1440 98.9" style="enable-background:new 0 0 1440 98.9;" xml:space="preserve">
<style type="text/css">
	.st0{fill:#333333;}
</style>
<path class="st0" d="M0,59l6.2,3.3C12.3,65.5,25,72.2,37,75.4c12.2,3.3,25,3.3,37-4.9c12.2-8.1,24-24.7,37-27.8
	c12.1-3.3,24,6.5,37,9.8c12,3.2,24,0.1,37,6.5c11.9,6.5,24,23,37,21.3c11.8-1.6,24-21.3,36-29.5c12.8-8.1,25-5,37,4.9
	c12.7,9.7,25,26.3,37,32.8c12.6,6.5,25,3.4,37-6.5c12.5-9.7,25-26.3,37-37.7c12.5-11.4,25-18.1,37-21.3c12.4-3.3,25-3.3,37,0
	c12.3,3.2,25,9.9,37,11.5c12.2,1.5,25-1.5,37,3.3c12.2,5,24,17.9,37,27.8c12.1,9.7,24,16.5,37,19.7c12,3.3,24,3.3,37-6.5
	c11.9-9.8,24-29.5,37-31.1c11.8-1.8,24,14.8,36,26.2c12.8,11.4,25,18.1,37,13.1c12.7-4.8,25-21.4,37-32.8c12.6-11.4,25-18.1,37-16.4
	c12.5,1.6,25,11.5,37,11.5c12.5,0,25-9.8,37-18c12.4-8.1,25-14.8,37-8.2c12.3,6.5,25,26.2,37,41c12.2,14.7,25,24.6,37,18
	c12.2-6.7,24-29.4,37-37.7c12.1-8.3,24-1.5,37,3.3c12,5,24,8.1,37,8.2c11.9-0.1,24-3.2,37-8.2c11.8-4.8,24-11.6,36-19.7
	c12.8-8.2,25-18,37-11.5c12.7,6.7,25,29.4,37,34.4c12.6,4.8,25-8.1,37-9.8c12.5-1.6,25,8.2,37,14.7c12.5,6.7,25,9.7,37,11.5
	c12.4,1.6,25,1.6,31,1.6h6V0h-6.2c-6.1,0-18.8,0-30.8,0c-12.2,0-25,0-37,0c-12.2,0-24,0-37,0c-12.1,0-24,0-37,0c-12,0-24,0-37,0
	c-11.9,0-24,0-37,0c-11.8,0-24,0-36,0c-12.8,0-25,0-37,0c-12.7,0-25,0-37,0c-12.6,0-25,0-37,0c-12.5,0-25,0-37,0c-12.5,0-25,0-37,0
	c-12.4,0-25,0-37,0c-12.3,0-25,0-37,0c-12.2,0-25,0-37,0c-12.2,0-24,0-37,0c-12.1,0-24,0-37,0c-12,0-24,0-37,0c-11.9,0-24,0-37,0
	c-11.8,0-24,0-36,0c-12.8,0-25,0-37,0c-12.7,0-25,0-37,0c-12.6,0-25,0-37,0c-12.5,0-25,0-37,0c-12.5,0-25,0-37,0c-12.4,0-25,0-37,0
	c-12.3,0-25,0-37,0c-12.2,0-25,0-37,0c-12.2,0-24,0-37,0c-12.1,0-24,0-37,0c-12,0-24,0-37,0c-11.9,0-24,0-37,0c-11.8,0-24,0-36,0
	c-12.8,0-25,0-37,0c-12.7,0-25,0-37,0c-12.6,0-25,0-37,0C98.5,0,86,0,74,0C61.5,0,49,0,37,0C24.6,0,12,0,6,0H0V59z"/>
</svg>
