<?xml version="1.0" encoding="utf-8"?>
<!-- Generator: Adobe Illustrator 23.0.1, SVG Export Plug-In . SVG Version: 6.00 Build 0)  -->
<svg version="1.1" id="magic-wand" xmlns="http://www.w3.org/2000/svg" xmlns:xlink="http://www.w3.org/1999/xlink" x="0px" y="0px"
	 viewBox="0 0 512 512" style="enable-background:new 0 0 512 512;" xml:space="preserve">
<style type="text/css">
	.st0{fill:#F0F0F0;}
	.st1{fill:#1DB954;}
	.st2{fill:#286C47;}
	.st3{fill:#505050;}
	.st4{fill:#B4B4B4;}
</style>
<g>
	<circle class="st0" cx="226.8" cy="279.1" r="146.8"/>
	<g>
		<circle class="st1" cx="312.2" cy="371.3" r="6.8"/>
		<circle class="st1" cx="359.9" cy="255.2" r="6.8"/>
		<circle class="st1" cx="271.2" cy="344" r="6.8"/>
		<circle class="st1" cx="196.1" cy="132.4" r="6.8"/>
		<circle class="st1" cx="189.3" cy="64.1" r="6.8"/>
		<path class="st1" d="M403.7,305.8c-1.7,0-3.5-0.7-4.8-2l-19.3-19.3c-2.7-2.7-2.7-7,0-9.7c2.7-2.7,7-2.7,9.7,0l19.3,19.3
			c2.7,2.7,2.7,7,0,9.7C407.2,305.2,405.5,305.8,403.7,305.8z"/>
		<path class="st1" d="M384.4,305.8c-1.7,0-3.5-0.7-4.8-2c-2.7-2.7-2.7-7,0-9.7l19.3-19.3c2.7-2.7,7-2.7,9.7,0c2.7,2.7,2.7,7,0,9.7
			l-19.3,19.3C387.9,305.2,386.2,305.8,384.4,305.8z"/>
		<path class="st1" d="M233.1,210.3c-1.7,0-3.5-0.7-4.8-2L208.9,189c-2.7-2.7-2.7-7,0-9.7c2.7-2.7,7-2.7,9.7,0l19.3,19.3
			c2.7,2.7,2.7,7,0,9.7C236.6,209.6,234.8,210.3,233.1,210.3L233.1,210.3z"/>
		<path class="st1" d="M213.8,210.3c-1.7,0-3.5-0.7-4.8-2c-2.7-2.7-2.7-7,0-9.7l19.3-19.3c2.7-2.7,7-2.7,9.7,0s2.7,7,0,9.7
			l-19.3,19.3C217.2,209.6,215.5,210.3,213.8,210.3L213.8,210.3z"/>
		<path class="st1" d="M383.2,114.7c-1.7,0-3.5-0.7-4.8-2l-19.3-19.3c-2.7-2.7-2.7-7,0-9.7c2.7-2.7,7-2.7,9.7,0l19.3,19.3
			c2.7,2.7,2.7,7,0,9.7C386.7,114,385,114.7,383.2,114.7z"/>
		<path class="st1" d="M363.9,114.7c-1.7,0-3.5-0.7-4.8-2c-2.7-2.7-2.7-7,0-9.7l19.3-19.3c2.7-2.7,7-2.7,9.7,0c2.7,2.7,2.7,7,0,9.7
			l-19.3,19.3C367.4,114,365.7,114.7,363.9,114.7z"/>
		<path class="st1" d="M264.4,105c-3.8,0-6.8-3.1-6.8-6.8V77.7c0-3.8,3.1-6.8,6.8-6.8s6.8,3.1,6.8,6.8v20.5
			C271.2,102,268.1,105,264.4,105z"/>
		<path class="st1" d="M264.4,152.8c-3.8,0-6.8-3.1-6.8-6.8v-20.5c0-3.8,3.1-6.8,6.8-6.8s6.8,3.1,6.8,6.8V146
			C271.2,149.8,268.1,152.8,264.4,152.8z"/>
		<path class="st1" d="M250.7,118.7h-20.5c-3.8,0-6.8-3.1-6.8-6.8s3.1-6.8,6.8-6.8h20.5c3.8,0,6.8,3.1,6.8,6.8
			S254.5,118.7,250.7,118.7z"/>
		<path class="st1" d="M298.5,118.7H278c-3.8,0-6.8-3.1-6.8-6.8s3.1-6.8,6.8-6.8h20.5c3.8,0,6.8,3.1,6.8,6.8
			S302.3,118.7,298.5,118.7z"/>
		<path class="st1" d="M155.1,241.6c-11.3,0-20.5-9.2-20.5-20.5c0-11.3,9.2-20.5,20.5-20.5c11.3,0,20.5,9.2,20.5,20.5
			S166.4,241.6,155.1,241.6z M155.1,214.3c-3.8,0-6.8,3.1-6.8,6.8c0,3.8,3.1,6.8,6.8,6.8s6.8-3.1,6.8-6.8
			C162,217.3,158.9,214.3,155.1,214.3z"/>
		<path class="st1" d="M339.5,330.3c-11.3,0-20.5-9.2-20.5-20.5s9.2-20.5,20.5-20.5c11.3,0,20.5,9.2,20.5,20.5
			S350.8,330.3,339.5,330.3z M339.5,303c-3.8,0-6.8,3.1-6.8,6.8s3.1,6.8,6.8,6.8c3.8,0,6.8-3.1,6.8-6.8S343.2,303,339.5,303z"/>
		<path class="st1" d="M414.6,391.8c-11.3,0-20.5-9.2-20.5-20.5s9.2-20.5,20.5-20.5S435,360,435,371.3S425.8,391.8,414.6,391.8z
			 M414.6,364.5c-3.8,0-6.8,3.1-6.8,6.8s3.1,6.8,6.8,6.8c3.8,0,6.8-3.1,6.8-6.8S418.3,364.5,414.6,364.5z"/>
		<path class="st1" d="M141.5,146c-11.3,0-20.5-9.2-20.5-20.5s9.2-20.5,20.5-20.5c11.3,0,20.5,9.2,20.5,20.5S152.8,146,141.5,146z
			 M141.5,118.7c-3.8,0-6.8,3.1-6.8,6.8c0,3.8,3.1,6.8,6.8,6.8s6.8-3.1,6.8-6.8C148.3,121.8,145.3,118.7,141.5,118.7z"/>
	</g>
	<g>
		<path class="st2" d="M297.6,249.5l-24.1-24.1l52.1-52.1c3.2-3.2,8.5-3.2,11.7,0l12.4,12.4c3.2,3.2,3.2,8.5,0,11.7L297.6,249.5z"/>
		<path class="st3" d="M297.6,256.3c-1.8,0-3.5-0.7-4.8-2l-24.1-24.1c-2.7-2.7-2.7-7,0-9.7l52.1-52.1c5.9-5.9,15.5-5.9,21.4,0
			l12.4,12.4c5.9,5.9,5.9,15.5,0,21.4l-52.1,52.1C301.2,255.6,299.5,256.3,297.6,256.3L297.6,256.3z M283.2,225.4l14.5,14.5
			l47.2-47.2c0.6-0.6,0.6-1.5,0-2.1l-12.4-12.4c-0.6-0.6-1.5-0.6-2.1,0L283.2,225.4z"/>
	</g>
	<g>
		<path class="st4" d="M93.2,445.2L74.5,430c-5.6-4.6-5.9-13.1-0.6-18l199.6-186.6l24.1,24.1L109.4,444.3
			C105.1,448.8,98,449.2,93.2,445.2L93.2,445.2z"/>
		<path class="st3" d="M100.8,454.7c-4.2,0-8.4-1.4-11.9-4.2l-18.6-15.3c-4.2-3.4-6.7-8.5-6.9-14c-0.2-5.4,2-10.7,6-14.4
			l199.6-186.6c2.7-2.5,6.9-2.4,9.5,0.2l24.1,24.1c2.6,2.6,2.7,6.9,0.1,9.6L114.3,449C110.7,452.8,105.7,454.7,100.8,454.7
			L100.8,454.7z M97.5,440c2.1,1.7,5.1,1.5,7-0.4l183.6-190l-14.7-14.7l-194.7,182c-1.5,1.4-1.7,3.1-1.6,3.9c0,0.9,0.3,2.5,1.9,3.8
			L97.5,440z"/>
	</g>
	<path class="st1" d="M414.6,187c-3.8,0-6.8-3.1-6.8-6.8v-13.7c0-3.8,3.1-6.8,6.8-6.8s6.8,3.1,6.8,6.8v13.7
		C421.4,183.9,418.3,187,414.6,187z"/>
	<path class="st1" d="M414.6,227.9c-3.8,0-6.8-3.1-6.8-6.8v-13.7c0-3.8,3.1-6.8,6.8-6.8s6.8,3.1,6.8,6.8v13.7
		C421.4,224.9,418.3,227.9,414.6,227.9z"/>
	<path class="st1" d="M400.9,200.6h-13.7c-3.8,0-6.8-3.1-6.8-6.8c0-3.8,3.1-6.8,6.8-6.8h13.7c3.8,0,6.8,3.1,6.8,6.8
		C407.7,197.6,404.7,200.6,400.9,200.6z"/>
	<path class="st1" d="M441.9,200.6h-13.7c-3.8,0-6.8-3.1-6.8-6.8c0-3.8,3.1-6.8,6.8-6.8h13.7c3.8,0,6.8,3.1,6.8,6.8
		C448.7,197.6,445.6,200.6,441.9,200.6z"/>
</g>
</svg>
