<?xml version="1.0" encoding="utf-8"?>
<!-- Generator: Adobe Illustrator 23.0.1, SVG Export Plug-In . SVG Version: 6.00 Build 0)  -->
<svg version="1.1" id="magic-wand" xmlns="http://www.w3.org/2000/svg" xmlns:xlink="http://www.w3.org/1999/xlink" x="0px" y="0px"
	 viewBox="0 0 512 512" style="enable-background:new 0 0 512 512;" xml:space="preserve">
<style type="text/css">
	.st0{fill:#DCDCDC;}
	.st1{fill:#1DB954;}
	.st2{fill:#787878;}
	.st3{fill:#F0F0F0;}
</style>
<g>
	<circle class="st0" cx="248.8" cy="278.3" r="146.8"/>
	<g>
		<circle class="st1" cx="334.2" cy="370.5" r="6.8"/>
		<circle class="st1" cx="381.9" cy="254.4" r="6.8"/>
		<circle class="st1" cx="293.2" cy="343.2" r="6.8"/>
		<circle class="st1" cx="218.1" cy="131.6" r="6.8"/>
		<circle class="st1" cx="211.3" cy="63.3" r="6.8"/>
		<path class="st1" d="M425.7,305c-1.7,0-3.5-0.7-4.8-2l-19.3-19.3c-2.7-2.7-2.7-7,0-9.7s7-2.7,9.7,0l19.3,19.3c2.7,2.7,2.7,7,0,9.7
			C429.2,304.4,427.5,305,425.7,305z"/>
		<path class="st1" d="M406.4,305c-1.7,0-3.5-0.7-4.8-2c-2.7-2.7-2.7-7,0-9.7l19.3-19.3c2.7-2.7,7-2.7,9.7,0s2.7,7,0,9.7L411.3,303
			C409.9,304.4,408.2,305,406.4,305z"/>
		<path class="st1" d="M255.1,209.5c-1.7,0-3.5-0.7-4.8-2l-19.4-19.3c-2.7-2.7-2.7-7,0-9.7s7-2.7,9.7,0l19.3,19.3
			c2.7,2.7,2.7,7,0,9.7C258.6,208.8,256.8,209.5,255.1,209.5L255.1,209.5z"/>
		<path class="st1" d="M235.8,209.5c-1.7,0-3.5-0.7-4.8-2c-2.7-2.7-2.7-7,0-9.7l19.3-19.3c2.7-2.7,7-2.7,9.7,0s2.7,7,0,9.7
			l-19.3,19.3C239.2,208.8,237.5,209.5,235.8,209.5L235.8,209.5z"/>
		<path class="st1" d="M405.2,113.9c-1.7,0-3.5-0.7-4.8-2l-19.3-19.3c-2.7-2.7-2.7-7,0-9.7s7-2.7,9.7,0l19.3,19.3
			c2.7,2.7,2.7,7,0,9.7C408.7,113.2,407,113.9,405.2,113.9z"/>
		<path class="st1" d="M385.9,113.9c-1.7,0-3.5-0.7-4.8-2c-2.7-2.7-2.7-7,0-9.7l19.3-19.3c2.7-2.7,7-2.7,9.7,0s2.7,7,0,9.7
			l-19.3,19.3C389.4,113.2,387.7,113.9,385.9,113.9z"/>
		<path class="st1" d="M286.4,104.2c-3.8,0-6.8-3.1-6.8-6.8V76.9c0-3.8,3.1-6.8,6.8-6.8s6.8,3.1,6.8,6.8v20.5
			C293.2,101.2,290.1,104.2,286.4,104.2z"/>
		<path class="st1" d="M286.4,152c-3.8,0-6.8-3.1-6.8-6.8v-20.5c0-3.8,3.1-6.8,6.8-6.8s6.8,3.1,6.8,6.8v20.5
			C293.2,149,290.1,152,286.4,152z"/>
		<path class="st1" d="M272.7,117.9h-20.5c-3.8,0-6.8-3.1-6.8-6.8s3.1-6.8,6.8-6.8h20.5c3.8,0,6.8,3.1,6.8,6.8
			S276.5,117.9,272.7,117.9z"/>
		<path class="st1" d="M320.5,117.9H300c-3.8,0-6.8-3.1-6.8-6.8s3.1-6.8,6.8-6.8h20.5c3.8,0,6.8,3.1,6.8,6.8
			S324.3,117.9,320.5,117.9z"/>
		<path class="st1" d="M177.1,240.8c-11.3,0-20.5-9.2-20.5-20.5s9.2-20.5,20.5-20.5s20.5,9.2,20.5,20.5S188.4,240.8,177.1,240.8z
			 M177.1,213.5c-3.8,0-6.8,3.1-6.8,6.8c0,3.8,3.1,6.8,6.8,6.8s6.8-3.1,6.8-6.8C184,216.5,180.9,213.5,177.1,213.5z"/>
		<path class="st1" d="M361.5,329.5c-11.3,0-20.5-9.2-20.5-20.5s9.2-20.5,20.5-20.5S382,297.7,382,309S372.8,329.5,361.5,329.5z
			 M361.5,302.2c-3.8,0-6.8,3.1-6.8,6.8s3.1,6.8,6.8,6.8c3.8,0,6.8-3.1,6.8-6.8S365.2,302.2,361.5,302.2z"/>
		<path class="st1" d="M436.6,391c-11.3,0-20.5-9.2-20.5-20.5s9.2-20.5,20.5-20.5s20.4,9.2,20.4,20.5S447.8,391,436.6,391z
			 M436.6,363.7c-3.8,0-6.8,3.1-6.8,6.8s3.1,6.8,6.8,6.8c3.8,0,6.8-3.1,6.8-6.8S440.3,363.7,436.6,363.7z"/>
		<path class="st1" d="M163.5,145.2c-11.3,0-20.5-9.2-20.5-20.5s9.2-20.5,20.5-20.5s20.5,9.2,20.5,20.5S174.8,145.2,163.5,145.2z
			 M163.5,117.9c-3.8,0-6.8,3.1-6.8,6.8c0,3.8,3.1,6.8,6.8,6.8s6.8-3.1,6.8-6.8S167.3,117.9,163.5,117.9z"/>
	</g>
	<g>
		<path class="st1" d="M319.6,248.7l-24.1-24.1l52.1-52.1c3.2-3.2,8.5-3.2,11.7,0l12.4,12.4c3.2,3.2,3.2,8.5,0,11.7L319.6,248.7z"/>
		<path class="st2" d="M319.6,255.5c-1.8,0-3.5-0.7-4.8-2l-24.1-24.1c-2.7-2.7-2.7-7,0-9.7l52.1-52.1c5.9-5.9,15.5-5.9,21.4,0
			l12.4,12.4c5.9,5.9,5.9,15.5,0,21.4l-52.1,52.1C323.2,254.8,321.5,255.5,319.6,255.5L319.6,255.5z M305.2,224.6l14.5,14.5
			l47.2-47.2c0.6-0.6,0.6-1.5,0-2.1l-12.4-12.4c-0.6-0.6-1.5-0.6-2.1,0L305.2,224.6z"/>
	</g>
	<g>
		<path class="st3" d="M115.2,444.4l-18.7-15.2c-5.6-4.6-5.9-13.1-0.6-18l199.6-186.6l24.1,24.1L131.4,443.5
			C127.1,448,120,448.4,115.2,444.4L115.2,444.4z"/>
		<path class="st2" d="M122.8,453.9c-4.2,0-8.4-1.4-11.9-4.2l-18.6-15.3c-4.2-3.4-6.7-8.5-6.9-14c-0.2-5.4,2-10.7,6-14.4L291,219.4
			c2.7-2.5,6.9-2.4,9.5,0.2l24.1,24.1c2.6,2.6,2.7,6.9,0.1,9.6L136.3,448.2C132.7,452,127.7,453.9,122.8,453.9L122.8,453.9z
			 M119.5,439.2c2.1,1.7,5.1,1.5,7-0.4l183.6-190l-14.7-14.7l-194.7,182c-1.5,1.4-1.7,3.1-1.6,3.9c0,0.9,0.3,2.5,1.9,3.8
			L119.5,439.2z"/>
	</g>
	<path class="st1" d="M436.6,186.2c-3.8,0-6.8-3.1-6.8-6.8v-13.7c0-3.8,3.1-6.8,6.8-6.8s6.8,3.1,6.8,6.8v13.7
		C443.4,183.1,440.3,186.2,436.6,186.2z"/>
	<path class="st1" d="M436.6,227.1c-3.8,0-6.8-3.1-6.8-6.8v-13.7c0-3.8,3.1-6.8,6.8-6.8s6.8,3.1,6.8,6.8v13.7
		C443.4,224.1,440.3,227.1,436.6,227.1z"/>
	<path class="st1" d="M422.9,199.8h-13.7c-3.8,0-6.8-3.1-6.8-6.8c0-3.8,3.1-6.8,6.8-6.8h13.7c3.8,0,6.8,3.1,6.8,6.8
		C429.7,196.8,426.7,199.8,422.9,199.8z"/>
	<path class="st1" d="M463.9,199.8h-13.7c-3.8,0-6.8-3.1-6.8-6.8c0-3.8,3.1-6.8,6.8-6.8h13.7c3.8,0,6.8,3.1,6.8,6.8
		C470.7,196.8,467.6,199.8,463.9,199.8z"/>
</g>
</svg>
