<?xml version="1.0" standalone="no"?>
<!DOCTYPE svg PUBLIC "-//W3C//DTD SVG 20010904//EN"
 "http://www.w3.org/TR/2001/REC-SVG-20010904/DTD/svg10.dtd">
<svg version="1.0" xmlns="http://www.w3.org/2000/svg"
 width="512.000000pt" height="512.000000pt" viewBox="0 0 512.000000 512.000000"
 preserveAspectRatio="xMidYMid meet">
<metadata>
Created by potrace 1.11, written by Peter Selinger 2001-2013
</metadata>
<g transform="translate(0.000000,512.000000) scale(0.100000,-0.100000)"
fill="#000000" stroke="none">
<path d="M1438 3796 c-59 -21 -86 -43 -110 -89 l-23 -42 0 -1040 c0 -572 3
-1052 8 -1067 10 -38 65 -98 104 -114 68 -29 169 -9 214 42 51 59 49 3 49
1128 0 714 -3 1054 -11 1073 -33 87 -145 140 -231 109z"/>
<path d="M3490 3278 c-26 -14 -57 -41 -75 -66 l-30 -44 0 -791 c0 -436 3 -804
8 -819 10 -38 65 -98 104 -114 68 -29 169 -9 214 42 51 58 49 24 49 882 l0
798 -29 46 c-52 82 -153 110 -241 66z"/>
<path d="M2165 2925 c-5 -2 -22 -6 -37 -9 -37 -8 -98 -63 -114 -103 -11 -26
-14 -152 -14 -638 0 -575 1 -608 19 -643 10 -20 27 -44 37 -53 55 -48 142 -63
207 -35 39 16 94 76 104 114 5 15 8 297 8 627 l0 600 -22 42 c-14 26 -39 51
-65 67 -41 23 -102 39 -123 31z"/>
<path d="M2778 2361 c-30 -19 -52 -44 -67 -73 -20 -43 -21 -57 -21 -378 0
-321 1 -335 21 -378 66 -136 272 -136 338 0 20 43 21 57 21 378 0 321 -1 335
-21 378 -31 63 -95 102 -169 102 -45 0 -65 -6 -102 -29z"/>
</g>
</svg>
